<svg width="200" height="350" xmlns="http://www.w3.org/2000/svg">

    <rect x="90" y="24" width="20" height="20" fill="#000000" />

    <rect x="68" y="46" width="20" height="20" fill="#000000" />
    <rect x="90" y="46" width="20" height="20" fill="#000000" />
    <rect x="112" y="46" width="20" height="20" fill="#000000" />

    <rect x="46" y="68" width="20" height="20" fill="#000000" />
    <rect x="68" y="68" width="20" height="20" fill="#000000" />
    <rect x="112" y="68" width="20" height="20" fill="#000000" />
    <rect x="134" y="68" width="20" height="20" fill="#000000" />

    <rect x="24" y="90" width="20" height="20" fill="#000000" />
    <rect x="46" y="90" width="20" height="20" fill="#000000" />
    <rect x="134" y="90" width="20" height="20" fill="#000000" />
    <rect x="156" y="90" width="20" height="20" fill="#000000" />

    <rect x="24" y="112" width="20" height="20" fill="#000000" />
    <rect x="90" y="112" width="20" height="20" fill="#000000" />
    <rect x="156" y="112" width="20" height="20" fill="#000000" />

    <rect x="24" y="134" width="20" height="20" fill="#000000" />
    <rect x="90" y="134" width="20" height="20" fill="#000000" />
    <rect x="156" y="134" width="20" height="20" fill="#000000" />

    <rect x="24" y="156" width="20" height="20" fill="#000000" />
    <rect x="90" y="156" width="20" height="20" fill="#000000" />
    <rect x="156" y="156" width="20" height="20" fill="#000000" />

    <rect x="24" y="178" width="20" height="20" fill="#000000" />
    <rect x="46" y="178" width="20" height="20" fill="#000000" />
    <rect x="134" y="178" width="20" height="20" fill="#000000" />
    <rect x="156" y="178" width="20" height="20" fill="#000000" />

    <rect x="46" y="200" width="20" height="20" fill="#000000" />
    <rect x="68" y="200" width="20" height="20" fill="#000000" />
    <rect x="112" y="200" width="20" height="20" fill="#000000" />
    <rect x="134" y="200" width="20" height="20" fill="#000000" />

    <rect x="68" y="222" width="20" height="20" fill="#000000" />
    <rect x="90" y="222" width="20" height="20" fill="#000000" />
    <rect x="112" y="222" width="20" height="20" fill="#000000" />

    <rect x="68" y="244" width="20" height="20" fill="#000000" />
    <rect x="90" y="244" width="20" height="20" fill="#000000" />
    <rect x="112" y="244" width="20" height="20" fill="#000000" />

    <rect x="46" y="266" width="20" height="20" fill="#000000" />
    <rect x="68" y="266" width="20" height="20" fill="#000000" />
    <rect x="112" y="266" width="20" height="20" fill="#000000" />
    <rect x="134" y="266" width="20" height="20" fill="#000000" />

    <rect x="24" y="288" width="20" height="20" fill="#000000" />
    <rect x="46" y="288" width="20" height="20" fill="#000000" />
    <rect x="134" y="288" width="20" height="20" fill="#000000" />
    <rect x="156" y="288" width="20" height="20" fill="#000000" />

    <rect x="24" y="310" width="20" height="20" fill="#000000" />
    <rect x="156" y="310" width="20" height="20" fill="#000000" />

</svg>