<?xml version="1.0" encoding="UTF-8"?>
<svg id="Looping_Pilot_Logo_Icon" data-name="Looping Pilot Logo Icon" xmlns="http://www.w3.org/2000/svg" viewBox="0 0 413.36 410.04">
  <title>LoopingPilot Logo</title>
<desc>Visual Brand Building; Visual Brand Identity; Corporate Design; Brand Design; Logo Design; Grafik Design; Icon Design; Visual Design</desc>
<metadata><?xpacket begin="﻿" id="W5M0MpCehiHzreSzNTczkc9d"?>
<x:xmpmeta xmlns:x="adobe:ns:meta/" x:xmptk="Adobe XMP Core 9.1-c002 79.a1cd12f, 2024/11/11-19:08:46        ">
   <rdf:RDF xmlns:rdf="http://www.w3.org/1999/02/22-rdf-syntax-ns#">
      <rdf:Description rdf:about=""
            xmlns:photoshop="http://ns.adobe.com/photoshop/1.0/"
            xmlns:xmpRights="http://ns.adobe.com/xap/1.0/rights/"
            xmlns:plus="http://ns.useplus.org/ldf/xmp/1.0/"
            xmlns:dc="http://purl.org/dc/elements/1.1/"
            xmlns:Iptc4xmpCore="http://iptc.org/std/Iptc4xmpCore/1.0/xmlns/"
            xmlns:xmp="http://ns.adobe.com/xap/1.0/"
            xmlns:xmpMM="http://ns.adobe.com/xap/1.0/mm/"
            xmlns:stEvt="http://ns.adobe.com/xap/1.0/sType/ResourceEvent#">
         <photoshop:Headline>Visual Brand Building – LoopingPilot</photoshop:Headline>
         <photoshop:CaptionWriter>eike einfeldt | branding+design</photoshop:CaptionWriter>
         <photoshop:Country>Germany</photoshop:Country>
         <photoshop:LabelColor>green</photoshop:LabelColor>
         <xmpRights:Marked>True</xmpRights:Marked>
         <plus:ModelReleaseStatus>http://ns.useplus.org/ldf/vocab/MR-LMR</plus:ModelReleaseStatus>
         <dc:creator>
            <rdf:Seq>
               <rdf:li>eike einfeldt | branding+design</rdf:li>
            </rdf:Seq>
         </dc:creator>
         <dc:description>
            <rdf:Alt>
               <rdf:li xml:lang="x-default">Visual Brand Building; Visual Brand Identity; Corporate Design; Brand Design; Logo Design; Grafik Design; Icon Design; Visual Design</rdf:li>
            </rdf:Alt>
         </dc:description>
         <dc:subject>
            <rdf:Bag>
               <rdf:li>Visual Brand Identity</rdf:li>
               <rdf:li>Corporate Design</rdf:li>
               <rdf:li>Brand Guidelines</rdf:li>
               <rdf:li>Brand Design</rdf:li>
               <rdf:li>Logo Design</rdf:li>
               <rdf:li>Content Design</rdf:li>
               <rdf:li>Grafik Design</rdf:li>
               <rdf:li>Icon Design</rdf:li>
            </rdf:Bag>
         </dc:subject>
         <dc:title>
            <rdf:Alt>
               <rdf:li xml:lang="x-default">LoopingPilot Logo</rdf:li>
            </rdf:Alt>
         </dc:title>
         <dc:rights>
            <rdf:Alt>
               <rdf:li xml:lang="x-default">©2026 eike einfeldt, all rights reserved</rdf:li>
            </rdf:Alt>
         </dc:rights>
         <Iptc4xmpCore:CreatorContactInfo>
            <rdf:Description>
               <Iptc4xmpCore:CiAdrCtry>Germany</Iptc4xmpCore:CiAdrCtry>
               <Iptc4xmpCore:CiEmailWork>hello@eike-einfeldt.de</Iptc4xmpCore:CiEmailWork>
               <Iptc4xmpCore:CiUrlWork>www.eike-einfeldt.de</Iptc4xmpCore:CiUrlWork>
            </rdf:Description>
         </Iptc4xmpCore:CreatorContactInfo>
         <xmp:MetadataDate>2026-06-16T19:32:42+02:00</xmp:MetadataDate>
         <xmp:Rating>5</xmp:Rating>
         <xmp:Label>Genehmigt</xmp:Label>
         <xmpMM:InstanceID>xmp.iid:2d03abe2-ef38-4e65-a278-091973adb8cf</xmpMM:InstanceID>
         <xmpMM:DocumentID>xmp.did:0d4fc844-0a7e-4aed-9522-b288ab7639db</xmpMM:DocumentID>
         <xmpMM:OriginalDocumentID>xmp.did:0d4fc844-0a7e-4aed-9522-b288ab7639db</xmpMM:OriginalDocumentID>
         <xmpMM:History>
            <rdf:Seq>
               <rdf:li>
                  <rdf:Description>
                     <stEvt:action>saved</stEvt:action>
                     <stEvt:instanceID>xmp.iid:0d4fc844-0a7e-4aed-9522-b288ab7639db</stEvt:instanceID>
                     <stEvt:when>2026-06-16T19:32:12+02:00</stEvt:when>
                     <stEvt:softwareAgent>Adobe Bridge 2026</stEvt:softwareAgent>
                     <stEvt:changed>/metadata</stEvt:changed>
                  </rdf:Description>
               </rdf:li>
               <rdf:li>
                  <rdf:Description>
                     <stEvt:action>saved</stEvt:action>
                     <stEvt:instanceID>xmp.iid:2d03abe2-ef38-4e65-a278-091973adb8cf</stEvt:instanceID>
                     <stEvt:when>2026-06-16T19:32:42+02:00</stEvt:when>
                     <stEvt:softwareAgent>Adobe Bridge 2026</stEvt:softwareAgent>
                     <stEvt:changed>/metadata</stEvt:changed>
                  </rdf:Description>
               </rdf:li>
            </rdf:Seq>
         </xmpMM:History>
      </rdf:Description>
   </rdf:RDF>
</x:xmpmeta>
                                                                                                    
                                                                                                    
                                                                                                    
                                                                                                    
                                                                                                    
                                                                                                    
                                                                                                    
                                                                                                    
                                                                                                    
                                                                                                    
                                                                                                    
                                                                                                    
                                                                                                    
                                                                                                   
<?xpacket end="w"?></metadata>
<defs>
    <style>
      .cls-1 {
        fill: #a4bf42;
        opacity: .8;
      }

      .cls-2 {
        fill: #fff;
      }

      .cls-3 {
        fill: #44a0f1;
        opacity: .7;
      }
    </style>
  </defs>
  <path id="Fond_Weiss" data-name="Fond Weiss" class="cls-2" d="M400.04,33.55s-37.09,16.48-83.25,40.67C288.63,31.54,264.82,0,264.82,0,264.82,0,198.81,87.45,156.65,168.13,79.38,210.26,0,270.17,0,270.17,0,270.17,106.92,350.87,193.37,390.81h0c12.19,7.08,25.53,12.41,39.67,15.62h0c10.22,2.33,20.85,3.56,31.77,3.56.61,0,1.22,0,1.82-.01h.02c35.93.91,71.34-11.85,98.51-36.05,21.77-20.5,37.09-47.77,42.59-78.45.07-.42.15-.83.22-1.25.09-.58.19-1.15.28-1.73.05-.32.1-.65.15-.98,14.83-93.84-8.37-257.98-8.37-257.98Z"/>
  <path class="cls-3" d="M407.32,267.5c0,78.08-62.8,141.5-140.66,142.49h-.02c-.6,0-1.21.01-1.82.01-10.92,0-21.56-1.23-31.77-3.56h0c-14.14-3.22-27.48-8.54-39.67-15.62h0c-42.48-24.68-71.05-70.66-71.05-123.32,0-25.14,14.54-61.51,34.33-99.37C198.81,87.45,264.82,0,264.82,0c0,0,23.81,31.54,51.97,74.22,21.83,33.09,46.27,72.88,64.26,109.84,15.56,31.98,26.28,61.85,26.28,83.44Z"/>
  <path class="cls-1" d="M408.41,291.53c-.05.33-.1.66-.15.98-.09.58-.19,1.16-.28,1.73-.07.42-.14.83-.22,1.25-5.5,30.68-20.82,57.95-42.59,78.45-27.16,24.2-62.58,36.96-98.51,36.05,0,0-.01,0-.02,0-22.21-.56-44.6-6.33-65.38-17.85-68.83-38.15-93.71-124.89-55.55-193.72,8.58-15.49,26.19-32.36,48.31-49.19,35.47-27,82.55-53.93,122.76-75.01,46.16-24.19,83.25-40.67,83.25-40.67,0,0,23.2,164.14,8.37,257.98Z"/>
  <path class="cls-3" d="M410,270.17c0,7.26-.54,14.39-1.59,21.35-.05.33-.1.66-.15.98-.09.58-.19,1.16-.28,1.73-.07.42-.14.83-.22,1.25-5.5,30.68-20.82,57.95-42.59,78.45-27.16,24.2-62.58,36.96-98.51,36.05,0,0-.01,0-.02,0-.6,0-1.21.01-1.82.01-10.92,0-21.56-1.23-31.77-3.56h0c-12.34-3.81-25.74-9.19-39.67-15.62h0C106.92,350.87,0,270.17,0,270.17c0,0,79.38-59.91,156.65-102.04,12.63-6.89,25.21-13.3,37.38-18.9,28.18-12.97,54.15-21.56,73.47-21.56,46.34,0,87.52,22.12,113.55,56.39,18.17,23.92,28.95,53.76,28.95,86.11Z"/>
  <circle class="cls-2" cx="330.69" cy="248.72" r="23.14"/>
</svg>